<svg xmlns="http://www.w3.org/2000/svg" version="1.1" xmlns:xlink="http://www.w3.org/1999/xlink" xmlns:svgjs="http://svgjs.dev/svgjs" width="2000" height="631" viewBox="0 0 2000 631"><g transform="matrix(1,0,0,1,-1.2112696095522324,1.254261682854633)"><svg viewBox="0 0 396 125" data-background-color="#ffffff" preserveAspectRatio="xMidYMid meet" height="631" width="2000" xmlns="http://www.w3.org/2000/svg" xmlns:xlink="http://www.w3.org/1999/xlink"><g id="tight-bounds" transform="matrix(1,0,0,1,0.24008861730862918,-0.24815317477884946)"><svg viewBox="0 0 395.52 125.49662022764227" height="125.49662022764227" width="395.52"><g><svg viewBox="0 0 395.52 125.49662022764227" height="125.49662022764227" width="395.52"><g><svg viewBox="0 0 395.52 125.49662022764227" height="125.49662022764227" width="395.52"><g id="textblocktransform"><svg viewBox="0 0 395.52 125.49662022764227" height="125.49662022764227" width="395.52" id="textblock"><g><svg viewBox="0 0 395.52 125.49662022764227" height="125.49662022764227" width="395.52"><path d="M394.594 26.917C392.735 13.89 387.435 10.269 387.435 10.269 371.165-3.149 350.86-0.257 332.619 1.671 300.414 1.749 268.339 4.615 236.208 6.152 168.767 6.387 100.749 2.531 33.643 12.04 27.339 14.958-6.54 12.614 1.121 28.584 3.129 35.228 10.456 42.601 10.232 48.697 11.236 49.765 12.631 47.316 13.226 48.853 15.309 52.996 18.711 51.042 21.501 53.491 17.614 60.03 20.403 65.475 23.062 71.181 18.377 72.666 12.371 71.962 9.675 76.886 9.396 80.456 7.89 79.778 6.235 79.622 5.026 79.518 2.59 79.908 2.999 81.029 4.394 84.859-1.594 87.073 2.162 90.825-0.422 94.889 3.948 98.406 3.353 102.809 3.278 103.695 3.687 104.45 4.338 104.659 7.22 105.779 3.018 107.968 3.464 110.338 33.029 126.543 65.104 115.341 95.394 122.792 103.259 117.581 97.346 124.641 100.489 123.547 102.943 122.271 104.728 127.559 107.499 124.563 107.927 123.704 107.276 121.671 108.8 122.062 109.6 122.271 110.307 122.219 110.418 121.02 110.586 119.222 109.117 120.343 108.726 119.405 112.947 114.663 111.906 125.944 115.866 125.475 115.68 124.094 114.528 122.114 116.889 122.375 119.232 120.395 119.306 118.753 121.389 123.209 121.463 124.173 121.835 124.85 122.43 125.319 128.938 120.473 135.409 127.038 142.233 124.85 146.417 122.453 150.433 126.153 154.672 125.241 156.16 124.511 157.666 123.209 159.098 125.397 176.632 125.866 195.319 123.912 211.943 125.475 256.364 122.557 303.836 126.674 350.674 122.818 361.719 121.333 373.192 119.222 383.958 117.529 383.958 117.529 392.679 112.892 392.679 92.049S394.538 73.812 394.817 57.216C395.096 40.621 396.398 39.943 394.538 26.917Z" opacity="1" fill="#010c80" data-fill-palette-color="tertiary"></path><g transform="matrix(1,0,0,1,55.76832,26.230666666666668)"><svg width="283.98335999999995" viewBox="1 -37.9 184.48 47.45" height="73.03528689430894" data-palette-color="#ffffff"><path d="M3.2-35.9Q3.85-35.9 7.28-35.7 10.7-35.5 20.75-35.5 30.8-35.5 32.9-35.8L32.9-35.8Q33.45-35.8 33.65-35.5 33.85-35.2 33.85-34.95L33.85-34.95 34.15-30.9Q34.15-29.65 34-29.33 33.85-29 33.35-29L33.35-29Q32.95-29 32.68-30.03 32.4-31.05 32.1-31.6L32.1-31.6Q31.35-32.9 27.75-32.9L27.75-32.9 21.25-32.9Q20.05-32.9 19.78-32.43 19.5-31.95 19.5-29.7L19.5-29.7 19.5-27.25 19.35-8.95 19.3-5.7Q19.3-3.55 19.98-2.9 20.65-2.25 21.45-1.93 22.25-1.6 22.8-1.55L22.8-1.55Q24.2-1.45 24.2-0.65L24.2-0.65Q24.2-0.1 23.95 0.05 23.7 0.2 23 0.2L23 0.2 17.45-0.2 12.35 0.15Q10.5 0.15 10.5-0.65L10.5-0.65Q10.5-1.15 10.8-1.33 11.1-1.5 11.98-1.63 12.85-1.75 13.1-1.8L13.1-1.8Q14.8-2.2 15-3.8L15-3.8Q15.5-8.2 15.5-22.7L15.5-22.7 15.45-31.65Q15.45-32.6 14.9-32.83 14.35-33.05 11.25-33.05 8.15-33.05 6.38-32.85 4.6-32.65 4.3-32.48 4-32.3 3.58-31.75 3.15-31.2 2.88-30.48 2.6-29.75 2.5-29.3L2.5-29.3Q2.35-28.15 1.55-28.15L1.55-28.15Q1-28.15 1-29L1-29Q1-31 1.25-32.63 1.5-34.25 1.53-34.5 1.55-34.75 1.58-34.83 1.6-34.9 1.63-35.08 1.65-35.25 1.7-35.33 1.75-35.4 1.83-35.52 1.9-35.65 2-35.7 2.1-35.75 2.25-35.8L2.25-35.8Q2.55-35.9 3.2-35.9ZM33.35-18.15L33.35-18.15 32.8-18.2Q31.85-18.2 31.85-19L31.85-19Q31.85-19.55 32.52-19.83 33.2-20.1 35.02-20.68 36.85-21.25 37.9-21.73 38.95-22.2 39.15-22.2L39.15-22.2Q39.8-22.2 39.8-21.2L39.8-21.2 39.75-19.85Q39.75-18.05 39.87-17.88 40-17.7 40.12-17.7 40.25-17.7 40.9-18.7 41.55-19.7 42.75-20.73 43.95-21.75 45.12-21.75 46.3-21.75 47.55-20.93 48.8-20.1 48.8-19.28 48.8-18.45 48.4-17.75L48.4-17.75Q47.7-16.55 47.1-16.55L47.1-16.55Q46.7-16.55 45.67-17.15 44.65-17.75 43.3-17.75 41.95-17.75 40.77-16.65 39.6-15.55 39.6-14.65L39.6-14.65 39.6-9.45 39.65-5.1 39.7-4.2Q39.7-3.15 40.4-2.4 41.1-1.65 41.72-1.55 42.35-1.45 42.8-1.4 43.25-1.35 43.5-1.33 43.75-1.3 44.05-1.2L44.05-1.2Q44.6-1.1 44.6-0.48 44.6 0.15 44 0.15L44 0.15 39.75-0.1 34.55 0.15Q33.65 0.15 33.55-0.05 33.45-0.25 33.45-0.45L33.45-0.45Q33.45-1.1 34.1-1.3L34.1-1.3Q35.4-1.6 35.67-2.58 35.95-3.55 35.95-6.75L35.95-6.75 35.9-14.8 35.85-16.3Q35.85-16.85 35.7-17.2L35.7-17.2Q35.3-18.15 33.35-18.15ZM62 0.95Q57.6 0.95 54.52-1.75 51.45-4.45 51.45-9.58 51.45-14.7 54.27-18.15 57.1-21.6 61.6-21.6L61.6-21.6Q63.7-21.6 65.42-20.85 67.15-20.1 68.09-19.03 69.05-17.95 69.7-16.75L69.7-16.75Q70.8-14.7 70.8-13.65L70.8-13.65Q70.8-12.75 68.75-12.75L68.75-12.75 55.9-12.75Q55.5-12.75 55.42-12.68 55.35-12.6 55.35-12.2L55.35-12.2Q55.35-7.5 57.87-4.8 60.4-2.1 63.8-2.1L63.8-2.1Q65.9-2.1 68.07-3.23 70.25-4.35 70.34-4.35L70.34-4.35Q70.84-4.35 70.84-3.9L70.84-3.9Q70.84-3.3 69.75-2.27 68.65-1.25 67.65-0.6L67.65-0.6Q65.25 0.95 62 0.95L62 0.95ZM56.3-13.95L56.3-13.95 65.09-14.25Q65.8-14.25 65.97-14.38 66.15-14.5 66.15-14.85L66.15-14.85Q66.15-16.35 64.75-18.35 63.35-20.35 60.85-20.35 58.35-20.35 57-18.38 55.65-16.4 55.65-14.65L55.65-14.65Q55.65-13.95 56.3-13.95ZM85.19 0L85.19 0 81.54-0.2Q80.24-0.2 78.09-0.1L78.09-0.1 75.94 0Q75.19 0 75.19-0.45 75.19-0.9 75.44-1 75.69-1.1 76.07-1.15 76.44-1.2 76.79-1.45L76.79-1.45Q77.74-2.05 77.84-5.08 77.94-8.1 77.94-9.05L77.94-9.05 77.94-16.25Q77.94-17.85 77.37-18.4 76.79-18.95 75.79-18.95L75.79-18.95 75.29-18.95Q74.34-18.95 74.34-19.5L74.34-19.5Q74.34-20 75.42-20.15 76.49-20.3 77.12-20.48 77.74-20.65 78.77-21.08 79.79-21.5 80.42-21.8 81.04-22.1 81.24-22.1L81.24-22.1 81.34-22.1Q81.79-22.1 81.79-21.5L81.79-21.5 81.69-19.35Q81.69-18.05 81.89-18.05 82.09-18.05 82.29-18.3L82.29-18.3Q83.04-19.35 84.29-20.1L84.29-20.1Q86.54-21.5 88.59-21.5 90.64-21.5 92.24-20.88 93.84-20.25 94.74-19.33 95.64-18.4 96.24-17.2L96.24-17.2Q97.24-15.2 97.24-13.1L97.24-13.1 97.24-12.6 97.29-9.95 97.29-4.85Q97.29-2.95 97.82-2.23 98.34-1.5 100.34-1.2L100.34-1.2Q101.34-1.05 101.34-0.45L101.34-0.45Q101.34 0.05 100.34 0.05L100.34 0.05 96.24-0.2 92.39 0Q91.39 0 91.39-0.65L91.39-0.65Q91.39-1.1 91.99-1.25L91.99-1.25 92.64-1.4Q93.74-1.75 93.74-4.75L93.74-4.75 93.74-11.5Q93.74-15.35 91.84-17.32 89.94-19.3 87.54-19.3 85.14-19.3 83.54-18.15 81.94-17 81.59-16 81.24-15 81.24-8.35L81.24-8.35 81.24-6.45Q81.24-3.95 81.77-2.75 82.29-1.55 84.09-1.4L84.09-1.4Q84.59-1.4 85.37-1.23 86.14-1.05 86.14-0.65L86.14-0.65Q86.14 0 85.19 0ZM121.54 0.15L121.54 0.15 121.39-1.7Q121.39-2.55 120.94-2.55L120.94-2.55Q120.79-2.55 120.22-2.05 119.64-1.55 118.89-0.93 118.14-0.3 116.72 0.2 115.29 0.7 113.64 0.7L113.64 0.7Q108.99 0.7 106.39-2.38 103.79-5.45 103.79-10.03 103.79-14.6 107.02-18.25 110.24-21.9 115.94-21.9L115.94-21.9Q117.24-21.9 119.37-21.18 121.49-20.45 121.69-20.45 121.89-20.45 121.89-22.25L121.89-22.25 121.99-28.7Q121.99-31.4 121.72-32.5 121.44-33.6 120.87-33.95 120.29-34.3 119.34-34.3L119.34-34.3 118.79-34.3Q118.04-34.3 117.89-34.35 117.74-34.4 117.74-34.7L117.74-34.7 117.74-34.75Q117.74-35.1 118.24-35.27 118.74-35.45 120.27-35.93 121.79-36.4 122.67-36.8 123.54-37.2 123.99-37.4L123.99-37.4Q124.94-37.9 125.34-37.9L125.34-37.9Q125.94-37.9 125.94-36.9L125.94-36.9Q125.94-36.75 125.62-32.65 125.29-28.55 125.29-26.05L125.29-26.05 125.19-7.8Q125.19-4.4 125.52-3.25 125.84-2.1 126.94-1.75L126.94-1.75Q127.09-1.7 127.79-1.58 128.49-1.45 128.79-1.28 129.09-1.1 129.09-0.7L129.09-0.7Q129.09-0.1 125.24 0.2L125.24 0.2Q124.44 0.25 123.39 0.48 122.34 0.7 122.09 0.7L122.09 0.7Q121.54 0.7 121.54 0.15ZM114.34-20.45Q111.09-20.45 109.24-18.07 107.39-15.7 107.39-12 107.39-8.3 109.72-5.1 112.04-1.9 115.69-1.9L115.69-1.9Q117.94-1.9 119.79-3.05 121.64-4.2 121.64-5.85L121.64-5.85 121.69-14.4Q121.69-17.45 120.29-18.25L120.29-18.25Q116.59-20.45 114.34-20.45L114.34-20.45ZM141.59 0.3L138.04 0.2 134.49 0.3Q132.49 0.3 132.49-0.38 132.49-1.05 133.24-1.3L133.24-1.3Q133.29-1.3 133.44-1.35L133.44-1.35Q134.59-1.75 134.94-2.55 135.29-3.35 135.29-10.3L135.29-10.3 135.29-14.7Q135.29-16.15 134.94-17 134.59-17.85 134.29-18.05 133.99-18.25 133.26-18.38 132.54-18.5 132.21-18.63 131.89-18.75 131.89-19.03 131.89-19.3 132.01-19.45 132.14-19.6 132.51-19.78 132.89-19.95 133.29-20.1L133.29-20.1Q134.69-20.5 135.59-20.9 136.49-21.3 136.96-21.5 137.44-21.7 137.59-21.8L137.59-21.8Q137.94-21.95 138.44-21.95L138.44-21.95Q139.19-21.95 139.19-21L139.19-21 138.89-18.6 138.89-4.9Q138.89-3.4 139.36-2.55 139.84-1.7 140.36-1.5 140.89-1.3 141.59-1.25 142.29-1.2 142.49-1.2L142.49-1.2Q143.19-1.1 143.19-0.5L143.19-0.5Q143.19 0.35 142.34 0.35L142.34 0.35 141.59 0.3ZM137.19-26.65Q136.19-26.65 135.46-27.7 134.74-28.75 134.74-29.43 134.74-30.1 135.61-31.18 136.49-32.25 137.26-32.25 138.04-32.25 138.79-31.23 139.54-30.2 139.54-29.4 139.54-28.6 138.59-27.63 137.64-26.65 137.19-26.65L137.19-26.65ZM148.84-18.75L148.84-18.75 146.84-18.6Q145.73-18.6 145.73-19.25L145.73-19.25Q145.73-20.15 146.16-20.45 146.59-20.75 147.84-20.75L147.84-20.75 148.88-20.75Q149.48-20.75 149.63-21.03 149.78-21.3 149.78-21.9L149.78-21.9Q149.78-25.55 150.98-28.63 152.19-31.7 153.98-33.5L153.98-33.5Q157.69-37.35 160.78-37.35L160.78-37.35Q161.94-37.35 162.66-36.98 163.38-36.6 163.38-35.95L163.38-35.95Q163.38-35.75 163.21-35.08 163.03-34.4 162.98-34.2 162.94-34 162.88-33.88 162.84-33.75 162.78-33.6 162.73-33.45 162.69-33.38 162.63-33.3 162.56-33.2 162.48-33.1 162.38-33.05L162.38-33.05Q162.23-32.95 161.98-32.95 161.73-32.95 161.48-33.3L161.48-33.3Q160.73-34.25 158.81-34.25 156.88-34.25 155.81-33.2 154.73-32.15 154.19-30.4L154.19-30.4Q153.13-27 153.13-22.9L153.13-22.9 153.13-21.65Q153.13-20.7 153.73-20.7L153.73-20.7Q158.13-20.7 159.09-21.4L159.09-21.4Q159.44-21.6 159.63-21.6 159.84-21.6 159.84-21.08 159.84-20.55 159.13-19.3L159.13-19.3Q158.84-18.85 157.88-18.85L157.88-18.85 153.98-18.8Q153.19-18.8 153.19-18.3L153.19-18.3 153.19-15.4 153.44-5.5Q153.44-2.85 154.13-2L154.13-2Q154.94-0.95 156.59-0.95L156.59-0.95Q157.44-0.95 157.44-0.2L157.44-0.2Q157.44 0.3 156.88 0.3L156.88 0.3 151.88 0.05 148.19 0.3Q147.44 0.3 147.44-0.4L147.44-0.4Q147.44-0.65 148.06-0.9 148.69-1.15 149.28-1.83 149.88-2.5 149.88-3.35 149.88-4.2 149.84-5.8L149.84-5.8Q149.69-10.7 149.69-17.95L149.69-17.95Q149.69-18.5 149.51-18.63 149.34-18.75 148.84-18.75ZM171.88 9.5L171.73 9.5 169.58 9.55Q168.63 9.55 168.63 8.9L168.63 8.9Q168.63 8.75 169.76 7.35 170.88 5.95 172.03 3.9 173.18 1.85 173.18 0.28 173.18-1.3 170.33-7.5 167.48-13.7 165.38-17.65L165.38-17.65Q164.83-18.65 164.26-19.2 163.68-19.75 163.33-19.8L163.33-19.8Q162.53-19.9 162.53-20.55 162.53-21.2 163.53-21.2L163.53-21.2 168.88-21.1 171.73-21.2Q172.08-21.2 172.36-21.03 172.63-20.85 172.63-20.65L172.63-20.65Q172.63-19.75 171.43-19.75L171.43-19.75 170.68-19.75Q169.88-19.75 169.88-18.5L169.88-18.5Q169.88-17 172.53-11.3L172.53-11.3Q172.93-10.45 173.73-8.6L173.73-8.6Q175.23-5.2 175.53-5.2 175.83-5.2 177.86-10.95 179.88-16.7 179.88-17.8 179.88-18.9 179.41-19.35 178.93-19.8 178.33-19.8L178.33-19.8Q176.78-19.7 176.78-20.65L176.78-20.65Q176.78-21.25 177.73-21.25L177.73-21.25 181.33-21.2 184.43-21.25Q185.48-21.25 185.48-20.6L185.48-20.6Q185.48-20.1 184.61-19.88 183.73-19.65 183.43-19.25L183.43-19.25Q182.63-18.1 180.73-12.95L180.73-12.95 176.28-1.1Q175.73 0.35 175.18 1.88 174.63 3.4 174.28 4.35 173.93 5.3 173.58 6.25 173.23 7.2 173.03 7.73 172.83 8.25 172.63 8.7L172.63 8.7Q172.23 9.5 171.88 9.5L171.88 9.5Z" opacity="1" transform="matrix(1,0,0,1,0,0)" fill="#ffffff" class="wordmark-text-0" data-fill-palette-color="quaternary" id="text-0"></path></svg></g></svg></g></svg></g></svg></g><g></g></svg></g><defs></defs></svg><rect width="395.52" height="125.49662022764227" fill="none" stroke="none" visibility="hidden"></rect></g></svg></g></svg>